<mxfile host="Electron" modified="2024-09-05T13:44:57.110Z" agent="Mozilla/5.0 (Windows NT 10.0; Win64; x64) AppleWebKit/537.36 (KHTML, like Gecko) draw.io/24.2.5 Chrome/120.0.6099.109 Electron/28.1.0 Safari/537.36" etag="ZuwGTV89rtepvmQdsGWP" version="24.2.5" type="device">
  <diagram id="vd58DF9Ni6WzJ4KIOInL" name="get_one(DiaryModelクラス)">
    <mxGraphModel dx="1036" dy="606" grid="1" gridSize="10" guides="1" tooltips="1" connect="1" arrows="1" fold="1" page="1" pageScale="1" pageWidth="827" pageHeight="1169" math="0" shadow="0">
      <root>
        <mxCell id="0" />
        <mxCell id="1" parent="0" />
        <mxCell id="kuwqbD2yIArFS6yPvDyF-1" value="" style="edgeStyle=orthogonalEdgeStyle;rounded=0;orthogonalLoop=1;jettySize=auto;html=1;" parent="1" source="kuwqbD2yIArFS6yPvDyF-2" edge="1">
          <mxGeometry relative="1" as="geometry">
            <mxPoint x="400" y="425" as="targetPoint" />
          </mxGeometry>
        </mxCell>
        <mxCell id="kuwqbD2yIArFS6yPvDyF-2" value="開始" style="strokeWidth=2;html=1;shape=mxgraph.flowchart.start_1;whiteSpace=wrap;" parent="1" vertex="1">
          <mxGeometry x="365" y="315" width="70" height="40" as="geometry" />
        </mxCell>
        <mxCell id="kuwqbD2yIArFS6yPvDyF-3" value="" style="edgeStyle=orthogonalEdgeStyle;rounded=0;orthogonalLoop=1;jettySize=auto;html=1;" parent="1" edge="1">
          <mxGeometry relative="1" as="geometry">
            <mxPoint x="400" y="485" as="sourcePoint" />
            <mxPoint x="400" y="555" as="targetPoint" />
          </mxGeometry>
        </mxCell>
        <mxCell id="kuwqbD2yIArFS6yPvDyF-4" style="rounded=0;orthogonalLoop=1;jettySize=auto;html=1;entryX=0.997;entryY=0.17;entryDx=0;entryDy=0;exitX=-0.006;exitY=0.387;exitDx=0;exitDy=0;exitPerimeter=0;endArrow=none;endFill=0;entryPerimeter=0;" parent="1" target="kuwqbD2yIArFS6yPvDyF-2" edge="1">
          <mxGeometry relative="1" as="geometry">
            <mxPoint x="460" y="295" as="targetPoint" />
            <mxPoint x="513.6800000000001" y="309.67499999999995" as="sourcePoint" />
          </mxGeometry>
        </mxCell>
        <mxCell id="kuwqbD2yIArFS6yPvDyF-5" value="引数１：id -&amp;gt;int型" style="text;html=1;align=left;verticalAlign=top;whiteSpace=wrap;rounded=0;fillColor=#f5f5f5;fontColor=#333333;strokeColor=#666666;" parent="1" vertex="1">
          <mxGeometry x="515" y="300" width="115" height="35" as="geometry" />
        </mxCell>
        <mxCell id="kuwqbD2yIArFS6yPvDyF-6" value="&lt;b style=&quot;&quot;&gt;&lt;font style=&quot;&quot;&gt;&lt;font style=&quot;font-size: 18px;&quot;&gt;初期化メソッド&lt;/font&gt;&lt;/font&gt;&lt;/b&gt;&lt;div&gt;&lt;font style=&quot;font-size: 14px;&quot;&gt;クラス：DiaryModelクラス&lt;/font&gt;&lt;/div&gt;&lt;div&gt;&lt;div style=&quot;font-size: 14px;&quot;&gt;&lt;font style=&quot;font-size: 14px;&quot;&gt;継承： BaseModelクラス&lt;/font&gt;&lt;/div&gt;&lt;/div&gt;&lt;div style=&quot;font-size: 14px;&quot;&gt;&lt;font style=&quot;font-size: 14px;&quot;&gt;&lt;br&gt;&lt;/font&gt;&lt;/div&gt;&lt;div style=&quot;font-size: 14px;&quot;&gt;&lt;font style=&quot;font-size: 14px;&quot;&gt;クラスの役割&lt;/font&gt;&lt;/div&gt;&lt;div style=&quot;font-size: 14px;&quot;&gt;&lt;font style=&quot;font-size: 14px;&quot;&gt;Dairyテーブルの操作用クラス。&lt;/font&gt;&lt;/div&gt;&lt;div style=&quot;font-size: 14px;&quot;&gt;&lt;font style=&quot;font-size: 14px;&quot;&gt;&lt;br&gt;&lt;/font&gt;&lt;/div&gt;&lt;div style=&quot;font-size: 14px;&quot;&gt;&lt;font style=&quot;font-size: 14px;&quot;&gt;メソッドの役割&lt;/font&gt;&lt;/div&gt;&lt;div style=&quot;font-size: 14px;&quot;&gt;&lt;font style=&quot;font-size: 14px;&quot;&gt;Dairyテーブルから指定したidのレコードデータ取得。&lt;/font&gt;&lt;/div&gt;" style="text;html=1;align=left;verticalAlign=top;whiteSpace=wrap;rounded=0;fillColor=#f5f5f5;fontColor=#333333;strokeColor=#666666;" parent="1" vertex="1">
          <mxGeometry x="20" y="20" width="340" height="180" as="geometry" />
        </mxCell>
        <mxCell id="kuwqbD2yIArFS6yPvDyF-7" value="変数をNoneで初期化" style="rounded=1;whiteSpace=wrap;html=1;" parent="1" vertex="1">
          <mxGeometry x="300" y="426" width="200" height="60" as="geometry" />
        </mxCell>
        <mxCell id="kuwqbD2yIArFS6yPvDyF-8" value="" style="edgeStyle=orthogonalEdgeStyle;rounded=0;orthogonalLoop=1;jettySize=auto;html=1;" parent="1" source="kuwqbD2yIArFS6yPvDyF-9" target="kuwqbD2yIArFS6yPvDyF-18" edge="1">
          <mxGeometry relative="1" as="geometry" />
        </mxCell>
        <mxCell id="kuwqbD2yIArFS6yPvDyF-9" value="self.connect()" style="shape=process;whiteSpace=wrap;html=1;backgroundOutline=1;" parent="1" vertex="1">
          <mxGeometry x="320" y="555" width="160" height="60" as="geometry" />
        </mxCell>
        <mxCell id="kuwqbD2yIArFS6yPvDyF-10" style="rounded=0;orthogonalLoop=1;jettySize=auto;html=1;entryX=1;entryY=0.5;entryDx=0;entryDy=0;exitX=-0.006;exitY=0.387;exitDx=0;exitDy=0;exitPerimeter=0;endArrow=none;endFill=0;" parent="1" source="kuwqbD2yIArFS6yPvDyF-11" edge="1">
          <mxGeometry relative="1" as="geometry">
            <mxPoint x="480" y="585" as="targetPoint" />
          </mxGeometry>
        </mxCell>
        <mxCell id="kuwqbD2yIArFS6yPvDyF-11" value="DB接続を確立" style="text;html=1;align=left;verticalAlign=top;whiteSpace=wrap;rounded=0;fillColor=#f5f5f5;fontColor=#333333;strokeColor=#666666;" parent="1" vertex="1">
          <mxGeometry x="535" y="590" width="95" height="25" as="geometry" />
        </mxCell>
        <mxCell id="kuwqbD2yIArFS6yPvDyF-12" value="self.close()" style="shape=process;whiteSpace=wrap;html=1;backgroundOutline=1;" parent="1" vertex="1">
          <mxGeometry x="320" y="840" width="160" height="60" as="geometry" />
        </mxCell>
        <mxCell id="kuwqbD2yIArFS6yPvDyF-15" value="" style="edgeStyle=orthogonalEdgeStyle;rounded=0;orthogonalLoop=1;jettySize=auto;html=1;exitX=0.5;exitY=1;exitDx=0;exitDy=0;" parent="1" source="kuwqbD2yIArFS6yPvDyF-12" edge="1">
          <mxGeometry relative="1" as="geometry">
            <mxPoint x="399.5" y="910" as="sourcePoint" />
            <mxPoint x="399.5" y="990" as="targetPoint" />
          </mxGeometry>
        </mxCell>
        <mxCell id="kuwqbD2yIArFS6yPvDyF-16" value="終了" style="strokeWidth=2;html=1;shape=mxgraph.flowchart.start_1;whiteSpace=wrap;" parent="1" vertex="1">
          <mxGeometry x="365" y="993" width="70" height="39" as="geometry" />
        </mxCell>
        <mxCell id="kuwqbD2yIArFS6yPvDyF-17" value="" style="edgeStyle=orthogonalEdgeStyle;rounded=0;orthogonalLoop=1;jettySize=auto;html=1;" parent="1" source="kuwqbD2yIArFS6yPvDyF-18" target="kuwqbD2yIArFS6yPvDyF-12" edge="1">
          <mxGeometry relative="1" as="geometry" />
        </mxCell>
        <mxCell id="kuwqbD2yIArFS6yPvDyF-18" value="Diaryテーブルから&lt;div&gt;受け取った引数1のコードデータを取得し、変数に代入&lt;/div&gt;" style="rounded=1;whiteSpace=wrap;html=1;" parent="1" vertex="1">
          <mxGeometry x="300" y="690" width="200" height="60" as="geometry" />
        </mxCell>
        <mxCell id="kuwqbD2yIArFS6yPvDyF-19" style="rounded=0;orthogonalLoop=1;jettySize=auto;html=1;entryX=1;entryY=0.5;entryDx=0;entryDy=0;exitX=-0.006;exitY=0.387;exitDx=0;exitDy=0;exitPerimeter=0;endArrow=none;endFill=0;" parent="1" source="kuwqbD2yIArFS6yPvDyF-20" edge="1">
          <mxGeometry relative="1" as="geometry">
            <mxPoint x="435" y="1010" as="targetPoint" />
          </mxGeometry>
        </mxCell>
        <mxCell id="kuwqbD2yIArFS6yPvDyF-20" value="戻り値：取得したレコードデータ" style="text;html=1;align=left;verticalAlign=top;whiteSpace=wrap;rounded=0;fillColor=#f5f5f5;fontColor=#333333;strokeColor=#666666;" parent="1" vertex="1">
          <mxGeometry x="490" y="1015" width="200" height="25" as="geometry" />
        </mxCell>
        <mxCell id="wN2MttNRIgSwakU3Wjm1-1" style="rounded=0;orthogonalLoop=1;jettySize=auto;html=1;entryX=1;entryY=0.5;entryDx=0;entryDy=0;exitX=-0.006;exitY=0.387;exitDx=0;exitDy=0;exitPerimeter=0;endArrow=none;endFill=0;" parent="1" source="wN2MttNRIgSwakU3Wjm1-2" edge="1">
          <mxGeometry relative="1" as="geometry">
            <mxPoint x="480" y="880" as="targetPoint" />
          </mxGeometry>
        </mxCell>
        <mxCell id="wN2MttNRIgSwakU3Wjm1-2" value="DB接続を閉じる" style="text;html=1;align=left;verticalAlign=top;whiteSpace=wrap;rounded=0;fillColor=#f5f5f5;fontColor=#333333;strokeColor=#666666;" parent="1" vertex="1">
          <mxGeometry x="535" y="885" width="95" height="25" as="geometry" />
        </mxCell>
      </root>
    </mxGraphModel>
  </diagram>
</mxfile>
